<?xml version="1.0" encoding="UTF-8" standalone="no"?>
<svg
   xmlns:dc="http://purl.org/dc/elements/1.1/"
   xmlns:cc="http://creativecommons.org/ns#"
   xmlns:rdf="http://www.w3.org/1999/02/22-rdf-syntax-ns#"
   xmlns:svg="http://www.w3.org/2000/svg"
   xmlns="http://www.w3.org/2000/svg"
   xmlns:sodipodi="http://sodipodi.sourceforge.net/DTD/sodipodi-0.dtd"
   xmlns:inkscape="http://www.inkscape.org/namespaces/inkscape"
   id="Capa_1"
   enable-background="new 0 0 512 512"
   height="512"
   viewBox="0 0 512 512"
   width="512"
   version="1.1"
   sodipodi:docname="scales.svg"
   inkscape:version="0.92.4 (5da689c313, 2019-01-14)">
  <metadata
     id="metadata11">
    <rdf:RDF>
      <cc:Work
         rdf:about="">
        <dc:format>image/svg+xml</dc:format>
        <dc:type
           rdf:resource="http://purl.org/dc/dcmitype/StillImage" />
      </cc:Work>
    </rdf:RDF>
  </metadata>
  <defs
     id="defs9" />
  <sodipodi:namedview
     pagecolor="#ffffff"
     bordercolor="#666666"
     borderopacity="1"
     objecttolerance="10"
     gridtolerance="10"
     guidetolerance="10"
     inkscape:pageopacity="0"
     inkscape:pageshadow="2"
     inkscape:window-width="1920"
     inkscape:window-height="1017"
     id="namedview7"
     showgrid="false"
     inkscape:zoom="1.3037281"
     inkscape:cx="59.782263"
     inkscape:cy="251.90872"
     inkscape:window-x="-8"
     inkscape:window-y="-8"
     inkscape:window-maximized="1"
     inkscape:current-layer="XMLID_14_" />
  <g
     id="XMLID_2276_">
    <g
       id="XMLID_14_">
      <path
         id="XMLID_29_"
         d="m434 310c43.009 0 78-34.99 78-78 0-1.327-.264-2.591-.734-3.75.001-.001.002-.001.003-.002l-.041-.101c-.008-.02-.016-.04-.024-.06l-62.368-154.087h33.161c16.542 0 30-13.458 30-30s-13.458-30-30-30c-5.523 0-10 4.477-10 10s4.477 10 10 10c5.514 0 10 4.486 10 10s-4.486 10-10 10h-191.997v-20c0-18.748-15.252-34-34-34s-34 15.252-34 34v20h-192c-5.514 0-10-4.486-10-10s4.486-10 10-10c5.523 0 10-4.477 10-10s-4.477-10-10-10c-16.542 0-30 13.458-30 30s13.458 30 30 30h33.164l-62.369 154.088c-.008.02-.016.04-.024.06l-.041.101.003.001c-.469 1.158-.733 2.423-.733 3.75 0 43.01 34.991 78 78 78s78-34.99 78-78c0-1.327-.264-2.592-.734-3.75.001 0 .002-.001.003-.001l-.041-.101c-.008-.02-.016-.04-.024-.06l-62.368-154.088h129.164v322h-114c-5.523 0-10 4.478-10 10v38h-38c-5.523 0-10 4.478-10 10v48c0 5.522 4.477 10 10 10h392c5.523 0 10-4.478 10-10v-48c0-5.522-4.477-10-10-10h-38v-38c0-5.522-4.477-10-10-10h-114v-118.999c0-5.522-4.477-10-10-10s-10 4.478-10 10v118.999h-28v-362c0-7.72 6.28-14 14-14s14 6.28 14 14v153c0 5.523 4.477 10 10 10s10-4.477 10-10v-113h129.164l-62.369 154.088c-.008.02-.016.04-.024.06l-.041.101c.001 0 .002.001.003.001-.47 1.159-.734 2.423-.734 3.751.001 43.009 34.992 77.999 78.001 77.999zm-356-20c-28.571 0-52.384-20.769-57.137-48h114.274c-4.753 27.231-28.566 48-57.137 48zm-53.164-68 53.164-131.347 53.164 131.347zm417.164 270h-372v-28h372zm-48-76v28h-276v-28zm40-325.347 53.164 131.347h-106.328zm57.137 151.347c-4.753 27.231-28.566 48-57.137 48s-52.384-20.769-57.137-48z"
         style="fill:#494949;fill-opacity:1;stroke:#000000;stroke-opacity:1;stroke-width:0;stroke-miterlimit:4;stroke-dasharray:none" />
      <path
         id="XMLID_381_"
         d="m280 222c-2.63 0-5.21 1.07-7.07 2.93s-2.93 4.44-2.93 7.07 1.07 5.21 2.93 7.07 4.44 2.93 7.07 2.93 5.21-1.07 7.07-2.93 2.93-4.44 2.93-7.07-1.07-5.21-2.93-7.07-4.44-2.93-7.07-2.93z" />
    </g>
  </g>
</svg>
